<svg version="1.1" viewBox="0 0 401.29 401.29" xmlns="http://www.w3.org/2000/svg" xmlnsCc="http://creativecommons.org/ns#" xmlnsDc="http://purl.org/dc/elements/1.1/" xmlnsRdf="http://www.w3.org/1999/02/22-rdf-syntax-ns#">
<metadata>
<rdfRDF>
<ccWork rdfAbout="">
<dcFormat>image/svg+xml</dcFormat>
<dcType rdfResource="http://purl.org/dc/dcmitype/StillImage"/>
<dcTitle/>
</ccWork>
</rdfRDF>
</metadata>
<g transform="translate(100.67 -852.28)">
<g fill-rule="evenodd" stroke="#000" stroke-width="1px">
<path d="m185.06 967.86-84.828 59.38v25.448l84.828-84.828z"/>
<path d="m185.04 967.85-59.38 84.828h-25.448l84.828-84.828z" fill="#fff"/>
<path d="m14.907 1138 84.828-59.38v-25.448l-84.828 84.828z"/>
<path d="m14.923 1138 59.38-84.828h25.448l-84.828 84.828z" fill="#fff"/>
<path d="m185.04 1138-59.38-84.828h-25.448l84.828 84.828z"/>
<path d="m185.06 1138-84.828-59.38v-25.448l84.828 84.828z" fill="#fff"/>
<path d="m14.923 967.85 59.38 84.828h25.448l-84.828-84.828z"/>
<path d="m14.907 967.86 84.828 59.38v25.448l-84.828-84.828z" fill="#fff"/>
<path d="m100 852.36-30 170 30 30v-200z"/>
<path d="m99.962 852.36 30 170-30 30v-200z" fill="#fff"/>
<path d="m99.962 1253.5 30-170-30-30v200z"/>
<path d="m100 1253.5-30-170 30-30v200z" fill="#fff"/>
<path d="m300.54 1052.9-170-30-30 30h200z"/>
<path d="m300.54 1052.9-170 30-30-30h200z" fill="#fff"/>
<path d="m-100.58 1052.9 170 30 30-30h-200z"/>
<path d="m-100.58 1052.9 170-30 30 30h-200z" fill="#fff"/>
</g>
</g>
</svg>
